<svg width="82" height="82" viewBox="0 0 82 82" fill="none" xmlns="http://www.w3.org/2000/svg">
<path d="M40.9 81.8C26.1 81.8 12.4 73.8 5.2 60.8L5 60.5L6.6 59.6L6.8 59.9C13.6 72.3 26.7 80 40.9 80C59.2 80 74.8 67.6 79 49.8L79.1 49.4L80.9 49.8L80.8 50.2C76.4 68.8 60 81.8 40.9 81.8ZM1.6 52.4C1 50.4 0.6 48.3 0.3 46.2C0.1 44.5 0 42.7 0 40.9V40.5H1.8V40.9C1.8 42.6 1.9 44.3 2.1 46C2.4 48 2.8 50 3.3 51.9L3.4 52.3L1.7 52.8L1.6 52.4ZM80 40.9C80 39.4 79.9 37.9 79.7 36.4C79 29.9 76.6 23.7 72.8 18.4L72.6 18.1L74.1 17.1L74.3 17.4C78.2 23 80.7 29.5 81.5 36.3C81.7 37.8 81.8 39.4 81.8 41V41.4H80V40.9ZM0.5 34.5L0.6 34.1C3.9 14.3 20.9 0 40.9 0C51.6 0 61.8 4.1 69.5 11.6L69.8 11.9L68.5 13.2L68.2 12.9C60.9 5.7 51.2 1.8 40.9 1.8C21.7 1.8 5.5 15.5 2.3 34.4L2.2 34.8L0.5 34.5Z" fill="#CCCCCC"/>
<path d="M40.9 81.4C26.2 81.4 12.7 73.4 5.5 60.6L6.4 60.1C13.4 72.6 26.6 80.4 40.9 80.4C59.4 80.4 75.2 67.9 79.4 49.9L80.4 50.1C76.1 68.5 59.8 81.4 40.9 81.4ZM2 52.3C1.4 50.3 1 48.3 0.7 46.2C0.5 44.5 0.4 42.7 0.4 40.9H1.4C1.4 42.6 1.5 44.3 1.7 46C2 48 2.4 50 3 52L2 52.3ZM81.4 40.9H80.4C80.4 39.4 80.3 37.9 80.1 36.4C79.4 29.9 77 23.6 73.2 18.2L74 17.6C77.9 23.1 80.4 29.6 81.1 36.3C81.3 37.8 81.4 39.3 81.4 40.9ZM1.9 34.3L0.9 34.1C4.3 14.6 21 0.4 40.9 0.4C51.5 0.4 61.6 4.5 69.2 11.9L68.5 12.6C61.1 5.4 51.3 1.4 40.9 1.4C21.5 1.4 5.2 15.2 1.9 34.3Z" fill="#CCCCCC"/>
</svg>
