<svg xmlns="http://www.w3.org/2000/svg" width="45" height="48" viewBox="0 0 45 48" fill="none"><path d="M11.5556 29.7778H5.22223V46.6666H11.5556V29.7778Z" stroke="#333333" stroke-width="1.5" stroke-linecap="round" stroke-linejoin="round"></path><path d="M23.1667 31.8889H16.8333V46.6667H23.1667V31.8889Z" stroke="#333333" stroke-width="1.5" stroke-linecap="round" stroke-linejoin="round"></path><path d="M34.7778 23.4445H28.4444V46.6667H34.7778V23.4445Z" stroke="#333333" stroke-width="1.5" stroke-linecap="round" stroke-linejoin="round"></path><path d="M25.2778 15H29.5V19.2222" stroke="#FA360A" stroke-width="1.5" stroke-linecap="round" stroke-linejoin="round"></path><path d="M5.22223 23.4444H13.6667L17.3611 27.1389L29.5 15" stroke="#FA360A" stroke-width="1.5" stroke-linecap="round" stroke-linejoin="round"></path><path d="M1 46.6667H39" stroke="#333333" stroke-width="1.5" stroke-linecap="round" stroke-linejoin="round"></path><path d="M31 3.11125L34.1113 0L35 0.888749L31.8887 4L35 7.11125L34.1113 8L31 4.88875L27.8887 8L27 7.11125L30.1113 4L27 0.888749L27.8887 0L31 3.11125Z" fill="#ACACAC"></path><circle cx="41" cy="16" r="3.25" stroke="#ACACAC" stroke-width="1.5"></circle></svg>