<svg xmlns="http://www.w3.org/2000/svg" width="50" height="56" viewBox="0 0 50 56" fill="none"><path d="M16.1028 8.47664C24.3613 8.47664 31.0561 6.80293 31.0561 4.73832C31.0561 2.6737 24.3613 1 16.1028 1C7.84434 1 1.14954 2.6737 1.14954 4.73832C1.14954 6.80293 7.84434 8.47664 16.1028 8.47664Z" stroke="#333333" stroke-width="1.8" stroke-miterlimit="10" stroke-linecap="round" stroke-linejoin="round"></path><path d="M31.0561 5.63551V11.1682C31.0561 13.7103 24.3271 15.6542 16.1028 15.6542C7.87851 15.6542 1.14954 13.7103 1.14954 11.1682V5.63551" stroke="#333333" stroke-width="1.8" stroke-miterlimit="10" stroke-linecap="round" stroke-linejoin="round"></path><path d="M31.0561 11.6168V18.6449C31.0561 21.1869 24.3271 23.1308 16.1028 23.1308C7.87851 23.1308 1.14954 21.1869 1.14954 18.6449V11.6168" stroke="#333333" stroke-width="1.8" stroke-miterlimit="10" stroke-linecap="round" stroke-linejoin="round"></path><path d="M21.486 29.7103C19.8411 29.8598 17.8972 30.0093 15.9533 30.0093C7.72897 30.0093 1 28.0654 1 25.5234V17.5981" stroke="#333333" stroke-width="1.8" stroke-miterlimit="10" stroke-linecap="round" stroke-linejoin="round"></path><path d="M31.0561 19.0935V23.5794" stroke="#000333" stroke-width="1.8" stroke-miterlimit="10" stroke-linecap="round" stroke-linejoin="round"></path><path d="M16.7009 37.486C16.4019 37.486 16.2523 37.486 15.9533 37.486C7.72897 37.486 1 35.5421 1 33V23.5794" stroke="#333333" stroke-width="1.8" stroke-miterlimit="10" stroke-linecap="round" stroke-linejoin="round"></path><path d="M17.5981 44.3645C17.1495 44.3645 16.5514 44.3645 15.9533 44.3645C7.72897 44.3645 1 42.4206 1 39.8785V32.4019" stroke="#333333" stroke-width="1.8" stroke-miterlimit="10" stroke-linecap="round" stroke-linejoin="round"></path><path d="M35.5421 54.9813C42.9747 54.9813 49 48.956 49 41.5234C49 34.0907 42.9747 28.0654 35.5421 28.0654C28.1094 28.0654 22.0841 34.0907 22.0841 41.5234C22.0841 48.956 28.1094 54.9813 35.5421 54.9813Z" stroke="#FA360A" stroke-width="1.8" stroke-miterlimit="10" stroke-linecap="round" stroke-linejoin="round"></path><path d="M31.0561 47.5047H37.0374C38.6823 47.5047 40.0281 46.1589 40.0281 44.514C40.0281 42.8692 38.6823 41.5234 37.0374 41.5234H34.0467C32.4019 41.5234 31.0561 40.1776 31.0561 38.5327C31.0561 36.8879 32.4019 35.5421 34.0467 35.5421H40.0281" stroke="#FA360A" stroke-width="1.8" stroke-miterlimit="10" stroke-linecap="round" stroke-linejoin="round"></path><path d="M35.5421 32.5514V35.5421" stroke="#FA360A" stroke-width="1.8" stroke-miterlimit="10" stroke-linecap="round" stroke-linejoin="round"></path><path d="M35.5421 47.5047V50.4953" stroke="#FA360A" stroke-width="1.8" stroke-miterlimit="10" stroke-linecap="round" stroke-linejoin="round"></path></svg>