<svg xmlns="http://www.w3.org/2000/svg" width="48" height="52" viewBox="0 0 48 52" fill="none"><path d="M36.4167 17H12.3333V31.1667H36.4167V17Z" stroke="#FA360A" stroke-width="1.5" stroke-linecap="round" stroke-linejoin="round"></path><path d="M24.0208 28.3333C26.1724 28.3333 27.9167 26.4305 27.9167 24.0833C27.9167 21.7361 26.1724 19.8333 24.0208 19.8333C21.8692 19.8333 20.125 21.7361 20.125 24.0833C20.125 26.4305 21.8692 28.3333 24.0208 28.3333Z" stroke="#FA360A" stroke-width="1.5" stroke-linecap="round" stroke-linejoin="round"></path><path d="M34.2917 21.2475C34.0096 21.2636 33.7282 21.2013 33.4652 21.0647C33.2021 20.9281 32.9632 20.7202 32.7636 20.454C32.564 20.1879 32.4081 19.8694 32.3056 19.5187C32.2032 19.168 32.1565 18.7927 32.1685 18.4167" stroke="#FA360A" stroke-width="1.5" stroke-linecap="round" stroke-linejoin="round"></path><path d="M13.75 27.6262C14.126 27.6182 14.5013 27.6494 14.852 27.7176C15.2027 27.7859 15.5212 27.8899 15.7874 28.023C16.0535 28.1561 16.2614 28.3153 16.398 28.4907C16.5346 28.666 16.5969 28.8537 16.5809 29.0417" stroke="#FA360A" stroke-width="1.5" stroke-linecap="round" stroke-linejoin="round"></path><path d="M13.75 21.2475C14.126 21.2636 14.5013 21.2013 14.852 21.0647C15.2027 20.9281 15.5212 20.7202 15.7874 20.454C16.0535 20.1879 16.2614 19.8694 16.398 19.5187C16.5346 19.168 16.5969 18.7927 16.5809 18.4167" stroke="#FA360A" stroke-width="1.5" stroke-linecap="round" stroke-linejoin="round"></path><path d="M34.2917 27.6262C34.0096 27.6182 33.7282 27.6494 33.4652 27.7176C33.2021 27.7859 32.9632 27.8899 32.7636 28.023C32.564 28.1561 32.4081 28.3153 32.3056 28.4907C32.2032 28.666 32.1565 28.8537 32.1685 29.0417" stroke="#FA360A" stroke-width="1.5" stroke-linecap="round" stroke-linejoin="round"></path><path d="M29.484 40.6601L37.2083 39.0054C37.5953 38.9136 38.0018 38.9568 38.361 39.128C38.7201 39.2991 39.0104 39.5879 39.1839 39.9467C39.2996 40.3479 39.2625 40.7778 39.08 41.1531C38.8975 41.5285 38.5825 41.8224 38.1961 41.9779L24.713 47.6751C22.4119 48.4832 19.9896 48.8887 17.5516 48.874C16.0694 48.8898 14.5915 48.7099 13.156 48.339L11.625 47.8733" stroke="#333333" stroke-width="1.5" stroke-linecap="round" stroke-linejoin="round"></path><path d="M11.625 49.0167L8.4375 51L1 38.1083L4.1875 36.125L11.625 49.0167Z" stroke="#333333" stroke-width="1.5" stroke-linecap="round" stroke-linejoin="round"></path><path d="M16.9229 43.2083H26.1871C26.8336 43.2083 27.4537 42.9518 27.9109 42.4952C28.3681 42.0385 28.625 41.4192 28.625 40.7734C28.625 40.1277 28.3681 39.5083 27.9109 39.0517C27.4537 38.5951 26.8336 38.3385 26.1871 38.3385H19.8484L19.0488 37.7152C17.0529 36.2237 14.6274 35.4174 12.1348 35.4167C10.5628 35.426 9.00945 35.7575 7.57092 36.3906L5.25 37.3646" stroke="#333333" stroke-width="1.5" stroke-linecap="round" stroke-linejoin="round"></path><path d="M34 3.11125L37.1113 0L38 0.888749L34.8887 4L38 7.11125L37.1113 8L34 4.88875L30.8887 8L30 7.11125L33.1113 4L30 0.888749L30.8887 0L34 3.11125Z" fill="#ACACAC"></path><circle cx="44" cy="16" r="3.25" stroke="#ACACAC" stroke-width="1.5"></circle></svg>