<svg xmlns="http://www.w3.org/2000/svg" width="42" height="52" viewBox="0 0 42 52" fill="none"><path d="M26.8823 7.25H37.9412C39.5882 7.25 41 8.75 41 10.5V47.75C41 49.5 39.5882 51 37.9412 51H12.2941C10.6471 51 9.23529 49.5 9.23529 47.75V28.5" stroke="#333333" stroke-width="1.8" stroke-miterlimit="10" stroke-linecap="round" stroke-linejoin="round"></path><path d="M26.8824 19.75H41" stroke="#333333" stroke-width="1.8" stroke-miterlimit="10" stroke-linecap="round" stroke-linejoin="round"></path><path d="M30.4118 13.5H28.0588" stroke="#333333" stroke-width="1.8" stroke-miterlimit="10" stroke-linecap="round" stroke-linejoin="round"></path><path d="M36.2941 13.5H33.9412" stroke="#333333" stroke-width="1.8" stroke-miterlimit="10" stroke-linecap="round" stroke-linejoin="round"></path><path d="M28.0588 24.75H22.1765V28.5H28.0588V24.75Z" stroke="#333333" stroke-width="1.8" stroke-miterlimit="10" stroke-linecap="round" stroke-linejoin="round"></path><path d="M37.4705 24.75H31.5882V28.5H37.4705V24.75Z" stroke="#333333" stroke-width="1.8" stroke-miterlimit="10" stroke-linecap="round" stroke-linejoin="round"></path><path d="M18.6471 32.25H12.7647V36H18.6471V32.25Z" stroke="#333333" stroke-width="1.8" stroke-miterlimit="10" stroke-linecap="round" stroke-linejoin="round"></path><path d="M28.0588 32.25H22.1765V36H28.0588V32.25Z" stroke="#333333" stroke-width="1.8" stroke-miterlimit="10" stroke-linecap="round" stroke-linejoin="round"></path><path d="M37.4705 32.25H31.5882V36H37.4705V32.25Z" stroke="#333333" stroke-width="1.8" stroke-miterlimit="10" stroke-linecap="round" stroke-linejoin="round"></path><path d="M18.6471 41H12.7647V44.75H18.6471V41Z" stroke="#333333" stroke-width="1.8" stroke-miterlimit="10" stroke-linecap="round" stroke-linejoin="round"></path><path d="M37.4706 41H22.1765V44.75H37.4706V41Z" stroke="#333333" stroke-width="1.8" stroke-miterlimit="10" stroke-linecap="round" stroke-linejoin="round"></path><path d="M11.5882 23.5C17.436 23.5 22.1765 18.4632 22.1765 12.25C22.1765 6.0368 17.436 1 11.5882 1C5.74051 1 1 6.0368 1 12.25C1 18.4632 5.74051 23.5 11.5882 23.5Z" stroke="#FA360A" stroke-width="1.8" stroke-miterlimit="10" stroke-linecap="round" stroke-linejoin="round"></path><path d="M8.05881 17.25H12.7647C14.0588 17.25 15.1176 16.125 15.1176 14.75C15.1176 13.375 14.0588 12.25 12.7647 12.25H10.4117C9.11763 12.25 8.05881 11.125 8.05881 9.75C8.05881 8.375 9.11763 7.25 10.4117 7.25H15.1176" stroke="#FA360A" stroke-width="1.8" stroke-miterlimit="10" stroke-linecap="round" stroke-linejoin="round"></path><path d="M11.5882 4.75V7.25" stroke="#FA360A" stroke-width="1.8" stroke-miterlimit="10" stroke-linecap="round" stroke-linejoin="round"></path><path d="M11.5882 17.25V19.75" stroke="#FA360A" stroke-width="1.8" stroke-miterlimit="10" stroke-linecap="round" stroke-linejoin="round"></path></svg>